<?xml version="1.0" encoding="UTF-8" standalone="no"?>
<!-- Created with Inkscape (http://www.inkscape.org/) -->

<svg
   xmlns:dc="http://purl.org/dc/elements/1.1/"
   xmlns:cc="http://creativecommons.org/ns#"
   xmlns:rdf="http://www.w3.org/1999/02/22-rdf-syntax-ns#"
   xmlns:svg="http://www.w3.org/2000/svg"
   xmlns="http://www.w3.org/2000/svg"
   xmlns:xlink="http://www.w3.org/1999/xlink"
   xmlns:sodipodi="http://sodipodi.sourceforge.net/DTD/sodipodi-0.dtd"
   xmlns:inkscape="http://www.inkscape.org/namespaces/inkscape"
   width="575.20013"
   height="297.01743"
   id="svg2"
   version="1.1"
   inkscape:version="0.48.2 r9819"
   sodipodi:docname="logo.svg">
  <defs
     id="defs4">
    <radialGradient
       spreadMethod="pad"
       gradientTransform="matrix(185.08243,0,0,-185.08243,255.94824,458.87207)"
       gradientUnits="userSpaceOnUse"
       id="radialGradient2390"
       fy="0"
       fx="0"
       r="1"
       cy="0"
       cx="0">
      <stop
         id="stop5446"
         style="stop-color:#f06620;stop-opacity:1;"
         offset="0" />
      <stop
         offset="1"
         style="stop-color:#e20026;stop-opacity:1"
         id="stop2394" />
    </radialGradient>
    <clipPath
       id="clipPath2382">
      <path
         id="path2384"
         d="m 167.674,685.688 c -4.781,-4.088 -9.703,-8.604 -14.203,-13.878 l 0,0 c -2.631,-3.073 10,-1.8 15.764,1.673 l 0,0 c 5.814,3.502 11.798,8.189 17.171,13.641 l 0,0 c 1.688,1.713 -0.283,2.431 -3.535,2.431 l 0,0 c -4.845,0 -12.535,-1.594 -15.197,-3.867 M 139.371,657.586 C 115.868,633.93 92.207,607.537 85.535,586.993 l 0,0 c -3.687,-11.358 -0.284,-21.562 13.829,-21.562 l 0,0 c 11.586,0 24.419,5.74 35.318,12.556 l 0,0 c -2.68,-3.656 -5.13,-6.977 -7.095,-9.651 l 0,0 c -3.076,-4.167 12.519,-2.644 15.808,1.554 l 0,0 c 12.335,15.777 41.969,35.189 50.221,35.189 l 0,0 c 7.508,0 -18.357,-19.383 -18.117,-31.248 l 0,0 c 0.3,-15.583 36.394,-6.039 48.642,9.999 l 0,0 c 1.92,2.5 0.422,9.389 -1.307,7.713 l 0,0 c -5.603,-5.474 -17.872,-14.635 -28.595,-14.635 l 0,0 c -7.932,0 7.867,14.21 15.69,25.666 l 0,0 c 7.468,10.944 1.361,14.221 -4.806,14.221 l 0,0 c -15.269,0 -30.182,-10.717 -40.293,-18.254 l 0,0 c 3.054,4.089 7.809,9.332 12.881,16.026 l 0,0 c 2.81,3.717 -14.025,2.384 -18.333,-3.288 l 0,0 c -1.373,-1.795 -2.887,-3.809 -4.502,-5.961 l 0,0 c -14.61,-17.563 -36.681,-29.412 -47.511,-29.412 l 0,0 c -6.037,0 -8.234,4.157 -4.476,12.016 l 0,0 c 9.057,18.948 40.266,54.953 57.228,70.718 l 0,0 c 3.265,3.06 0.985,4.294 -3.129,4.294 l 0,0 c -5.588,0 -14.56,-2.277 -17.617,-5.348 m 199.818,-15.21 c -4.789,-4.094 -12.747,-11.426 -17.25,-16.703 l 0,0 c -2.624,-3.078 8.1,-2.769 13.864,0.701 l 0,0 c 5.81,3.501 16.74,11.986 22.119,17.436 l 0,0 c 1.688,1.713 -0.286,2.431 -3.539,2.431 l 0,0 c -4.847,0 -12.534,-1.593 -15.194,-3.865 M 229.936,599.812 c -2.419,-2.841 -1.167,-9.955 1.332,-7.486 l 0,0 c 15.649,15.481 15.293,14.22 36.009,14.22 l 0,0 c -3.331,-3.538 -9.267,-7.068 -19.337,-19.847 l 0,0 c -8.972,-11.401 -3.102,-20.615 9.64,-20.615 l 0,0 c 7.046,0 17.563,3.305 27.183,10.084 l 0,0 c -1.152,-5.94 1.233,-10.192 10.306,-10.192 l 0,0 c 10.511,0 22.513,6.253 32.458,13.207 l 0,0 c -1.246,-7.544 2.637,-13.207 13.764,-13.207 l 0,0 c 8.561,0 18.529,3.362 28.82,12.284 l 0,0 c -0.054,-6.818 4.754,-12.233 13.717,-12.233 l 0,0 c 21.824,0 97.199,27.374 123.424,11.565 l 0,0 c 3.283,-1.972 3.137,8.303 -3.479,12.417 l 0,0 C 480.09,604.764 415.322,579.051 390.756,576.121 l 0,0 c -4.604,-0.55 -6.28,0.612 -5.193,3.736 l 0,0 c 2.083,6.023 10.295,17.1 11.947,20.915 l 0,0 c 1.558,3.643 1.346,16.165 -17.176,16.165 l 0,0 c -15.135,0 -29.02,-7.028 -38.779,-15.875 l 0,0 c -9.299,-7.93 -27.315,-23.62 -38.406,-23.62 l 0,0 c -11.48,0 22.144,34.687 24.001,36.437 l 0,0 c 4.999,4.689 -10.759,3.532 -17.381,-1.512 l 0,0 c -2.644,-2.013 -13.214,-13.317 -19.825,-24.265 l 0,0 c -19.121,-13.217 -38.156,-16.285 -29.098,-5.298 l 0,0 c 4.814,5.856 12.962,13.699 18.566,19.912 l 0,0 c 7.822,8.676 6.41,14.384 -10.863,14.384 l 0,0 c -23.122,0 -25.568,-2.012 -38.613,-17.288 m 150.232,8.687 c 11.175,0 -19.211,-32.702 -33.012,-32.702 l 0,0 c -14.31,0 14.346,32.702 33.012,32.702"
         inkscape:connector-curvature="0" />
    </clipPath>
    <clipPath
       id="clipPath2402">
      <path
         id="path2404"
         d="m 0,841.89 595.276,0 L 595.276,0 0,0 0,841.89 z"
         inkscape:connector-curvature="0" />
    </clipPath>
    <linearGradient
       inkscape:collect="always"
       xlink:href="#radialGradient2390"
       id="linearGradient5466"
       x1="145.12733"
       y1="189.6002"
       x2="642.72784"
       y2="189.6002"
       gradientUnits="userSpaceOnUse"
       spreadMethod="repeat" />
    <linearGradient
       spreadMethod="repeat"
       gradientUnits="userSpaceOnUse"
       y2="189.6002"
       x2="642.72784"
       y1="189.6002"
       x1="145.12733"
       id="linearGradient5466-5"
       xlink:href="#radialGradient2390-6"
       inkscape:collect="always" />
    <clipPath
       id="clipPath2402-5">
      <path
         inkscape:connector-curvature="0"
         d="m 0,841.89 595.276,0 L 595.276,0 0,0 0,841.89 z"
         id="path2404-0" />
    </clipPath>
    <clipPath
       id="clipPath2382-4">
      <path
         inkscape:connector-curvature="0"
         d="m 167.674,685.688 c -4.781,-4.088 -9.703,-8.604 -14.203,-13.878 l 0,0 c -2.631,-3.073 10,-1.8 15.764,1.673 l 0,0 c 5.814,3.502 11.798,8.189 17.171,13.641 l 0,0 c 1.688,1.713 -0.283,2.431 -3.535,2.431 l 0,0 c -4.845,0 -12.535,-1.594 -15.197,-3.867 M 139.371,657.586 C 115.868,633.93 92.207,607.537 85.535,586.993 l 0,0 c -3.687,-11.358 -0.284,-21.562 13.829,-21.562 l 0,0 c 11.586,0 24.419,5.74 35.318,12.556 l 0,0 c -2.68,-3.656 -5.13,-6.977 -7.095,-9.651 l 0,0 c -3.076,-4.167 12.519,-2.644 15.808,1.554 l 0,0 c 12.335,15.777 41.969,35.189 50.221,35.189 l 0,0 c 7.508,0 -18.357,-19.383 -18.117,-31.248 l 0,0 c 0.3,-15.583 36.394,-6.039 48.642,9.999 l 0,0 c 1.92,2.5 0.422,9.389 -1.307,7.713 l 0,0 c -5.603,-5.474 -17.872,-14.635 -28.595,-14.635 l 0,0 c -7.932,0 7.867,14.21 15.69,25.666 l 0,0 c 7.468,10.944 1.361,14.221 -4.806,14.221 l 0,0 c -15.269,0 -30.182,-10.717 -40.293,-18.254 l 0,0 c 3.054,4.089 7.809,9.332 12.881,16.026 l 0,0 c 2.81,3.717 -14.025,2.384 -18.333,-3.288 l 0,0 c -1.373,-1.795 -2.887,-3.809 -4.502,-5.961 l 0,0 c -14.61,-17.563 -36.681,-29.412 -47.511,-29.412 l 0,0 c -6.037,0 -8.234,4.157 -4.476,12.016 l 0,0 c 9.057,18.948 40.266,54.953 57.228,70.718 l 0,0 c 3.265,3.06 0.985,4.294 -3.129,4.294 l 0,0 c -5.588,0 -14.56,-2.277 -17.617,-5.348 m 199.818,-15.21 c -4.789,-4.094 -12.747,-11.426 -17.25,-16.703 l 0,0 c -2.624,-3.078 8.1,-2.769 13.864,0.701 l 0,0 c 5.81,3.501 16.74,11.986 22.119,17.436 l 0,0 c 1.688,1.713 -0.286,2.431 -3.539,2.431 l 0,0 c -4.847,0 -12.534,-1.593 -15.194,-3.865 M 229.936,599.812 c -2.419,-2.841 -1.167,-9.955 1.332,-7.486 l 0,0 c 15.649,15.481 15.293,14.22 36.009,14.22 l 0,0 c -3.331,-3.538 -9.267,-7.068 -19.337,-19.847 l 0,0 c -8.972,-11.401 -3.102,-20.615 9.64,-20.615 l 0,0 c 7.046,0 17.563,3.305 27.183,10.084 l 0,0 c -1.152,-5.94 1.233,-10.192 10.306,-10.192 l 0,0 c 10.511,0 22.513,6.253 32.458,13.207 l 0,0 c -1.246,-7.544 2.637,-13.207 13.764,-13.207 l 0,0 c 8.561,0 18.529,3.362 28.82,12.284 l 0,0 c -0.054,-6.818 4.754,-12.233 13.717,-12.233 l 0,0 c 21.824,0 97.199,27.374 123.424,11.565 l 0,0 c 3.283,-1.972 3.137,8.303 -3.479,12.417 l 0,0 C 480.09,604.764 415.322,579.051 390.756,576.121 l 0,0 c -4.604,-0.55 -6.28,0.612 -5.193,3.736 l 0,0 c 2.083,6.023 10.295,17.1 11.947,20.915 l 0,0 c 1.558,3.643 1.346,16.165 -17.176,16.165 l 0,0 c -15.135,0 -29.02,-7.028 -38.779,-15.875 l 0,0 c -9.299,-7.93 -27.315,-23.62 -38.406,-23.62 l 0,0 c -11.48,0 22.144,34.687 24.001,36.437 l 0,0 c 4.999,4.689 -10.759,3.532 -17.381,-1.512 l 0,0 c -2.644,-2.013 -13.214,-13.317 -19.825,-24.265 l 0,0 c -19.121,-13.217 -38.156,-16.285 -29.098,-5.298 l 0,0 c 4.814,5.856 12.962,13.699 18.566,19.912 l 0,0 c 7.822,8.676 6.41,14.384 -10.863,14.384 l 0,0 c -23.122,0 -25.568,-2.012 -38.613,-17.288 m 150.232,8.687 c 11.175,0 -19.211,-32.702 -33.012,-32.702 l 0,0 c -14.31,0 14.346,32.702 33.012,32.702"
         id="path2384-5" />
    </clipPath>
    <radialGradient
       cx="0"
       cy="0"
       r="1"
       fx="0"
       fy="0"
       id="radialGradient2390-6"
       gradientUnits="userSpaceOnUse"
       gradientTransform="matrix(185.08243,0,0,-185.08243,255.94824,458.87207)"
       spreadMethod="pad">
      <stop
         offset="0"
         style="stop-color:#f06620;stop-opacity:1;"
         id="stop5446-2" />
      <stop
         id="stop2394-5"
         style="stop-color:#e20026;stop-opacity:1"
         offset="1" />
    </radialGradient>
  </defs>
  <sodipodi:namedview
     id="base"
     pagecolor="#ffffff"
     bordercolor="#666666"
     borderopacity="1.0"
     inkscape:pageopacity="0"
     inkscape:pageshadow="2"
     inkscape:zoom="1"
     inkscape:cx="248.94329"
     inkscape:cy="71.455315"
     inkscape:document-units="px"
     inkscape:current-layer="layer1"
     showgrid="false"
     inkscape:window-width="1280"
     inkscape:window-height="689"
     inkscape:window-x="0"
     inkscape:window-y="0"
     inkscape:window-maximized="1"
     borderlayer="false"
     showborder="true"
     inkscape:showpageshadow="true"
     fit-margin-top="0"
     fit-margin-left="0"
     fit-margin-right="0"
     fit-margin-bottom="0" />
  <metadata
     id="metadata7">
    <rdf:RDF>
      <cc:Work
         rdf:about="">
        <dc:format>image/svg+xml</dc:format>
        <dc:type
           rdf:resource="http://purl.org/dc/dcmitype/StillImage" />
        <dc:title />
      </cc:Work>
    </rdf:RDF>
  </metadata>
  <g
     inkscape:groupmode="layer"
     id="layer2"
     inkscape:label="BG"
     transform="translate(10.215627,881.57513)">
    <g
       transform="matrix(0.47227998,0,0,0.47227998,130.39212,-754.25189)"
       id="layer1-36"
       inkscape:label="Layer 1"
       style="opacity:0.85">
      <g
         id="g7889"
         transform="translate(-297.18366,-269.53866)">
        <g
           style="overflow:visible"
           id="g7673"
           transform="matrix(6.172763,0,0,6.172763,-0.53818834,-0.05093815)">
          <g
             id="g7647"
             image-rendering="optimizeQuality"
             text-rendering="geometricPrecision"
             shape-rendering="geometricPrecision">
            <path
               id="path7649"
               d="m 84.45,66.836 c -0.636,-0.337 -1.284,-0.624 -1.936,-0.879 l 0.466,-0.038 c 0,0 -4.151,-1.838 -4.514,-15.18 -0.359,-13.344 3.957,-15.62 3.957,-15.62 l -0.62,0.027 C 85.064,33.473 87.869,30.83 89.72,27.342 94.543,18.27 91.092,7.001 82.018,2.177 72.94,-2.641 61.674,0.802 56.854,9.883 54.872,13.608 54.309,17.7 54.935,21.566 L 54.723,21.24 c 0,0 1.093,4.842 -10.258,11.888 -11.349,7.05 -16.469,3.54 -16.469,3.54 l 0.326,0.48 C 27.997,36.947 27.686,36.742 27.347,36.565 18.269,31.741 7,35.188 2.178,44.266 c -4.82,9.077 -1.372,20.341 7.703,25.167 6.766,3.591 14.744,2.59 20.365,-1.914 l -0.122,0.236 c 0,0 4.132,-3.399 16.04,2.994 9.4,5.044 10.796,9.988 10.975,11.846 -0.246,6.893 3.347,13.654 9.847,17.107 9.075,4.825 20.344,1.375 25.164,-7.701 4.824,-9.075 1.378,-20.345 -7.7,-25.165 z m -20.984,2.446 c -1.504,0.532 -5.801,1.121 -14.847,-3.73 -9.797,-5.26 -11.251,-9.654 -11.464,-10.973 0.139,-1.6 0.05,-3.197 -0.223,-4.755 l 0.06,0.09 c 0,0 -0.798,-4.274 10.412,-11.235 10.033,-6.228 14.594,-4.989 15.443,-4.664 0.546,0.371 1.112,0.717 1.706,1.033 1.129,0.6 2.293,1.07 3.472,1.418 1.38,1.314 3.92,5.045 4.184,14.854 0.27,9.883 -2.634,13.694 -4.217,15.042 -1.63,0.738 -3.156,1.723 -4.526,2.92 z"
               inkscape:connector-curvature="0"
               style="fill:#0c479c" />
            <g
               id="g7651">
              <path
                 id="path7653"
                 d="m 62.239,8.1 c -5.415,5.923 -5.529,14.636 -0.312,19.566 -2.579,-2.483 -2.523,-7.651 0.083,-12.597 0.335,-0.443 1.306,-1.49 2.725,-1.014 0.143,0.049 0.237,0.062 0.292,0.053 0.321,0.069 0.65,0.11 0.99,0.095 2.155,-0.098 3.822,-1.921 3.725,-4.077 C 69.698,9.159 69.297,8.303 68.677,7.646 73.679,4.369 79.419,3.994 81.771,6.142 l 0.09,0.006 C 76.488,1.242 67.705,2.119 62.239,8.1 z"
                 inkscape:connector-curvature="0"
                 style="fill:#ffffff" />
            </g>
            <g
               id="g7655">
              <path
                 id="path7657"
                 d="M 7.632,62.845 C 7.586,62.798 7.539,62.743 7.491,62.697 c 0.03,0.031 0.059,0.069 0.095,0.102 l 0.046,0.046 z"
                 inkscape:connector-curvature="0"
                 style="fill:#ffffff" />
              <path
                 id="path7659"
                 d="M 7.805,43.13 C 2.389,49.054 2.276,57.765 7.492,62.696 4.914,60.212 4.969,55.044 7.575,50.098 c 0.336,-0.444 1.308,-1.49 2.727,-1.014 0.141,0.049 0.236,0.061 0.292,0.054 0.321,0.069 0.651,0.11 0.99,0.095 2.156,-0.099 3.822,-1.922 3.725,-4.076 -0.045,-0.967 -0.445,-1.824 -1.063,-2.48 4.999,-3.276 10.74,-3.654 13.092,-1.505 l 0.089,0.008 C 22.054,36.271 13.269,37.147 7.805,43.13 z"
                 inkscape:connector-curvature="0"
                 style="fill:#ffffff" />
            </g>
            <g
               id="g7661">
              <path
                 id="path7663"
                 d="m 65.256,92.504 c -0.047,-0.048 -0.094,-0.102 -0.141,-0.148 0.029,0.031 0.059,0.069 0.094,0.101 l 0.047,0.047 z"
                 inkscape:connector-curvature="0"
                 style="fill:#ffffff" />
              <path
                 id="path7665"
                 d="m 65.428,72.786 c -5.416,5.926 -5.529,14.639 -0.313,19.569 -2.58,-2.483 -2.523,-7.653 0.082,-12.597 0.336,-0.445 1.307,-1.49 2.727,-1.014 0.143,0.047 0.235,0.061 0.292,0.053 0.32,0.069 0.651,0.11 0.99,0.096 2.154,-0.1 3.82,-1.924 3.723,-4.08 -0.044,-0.966 -0.445,-1.822 -1.063,-2.479 5,-3.275 10.739,-3.652 13.093,-1.504 l 0.088,0.007 c -5.37,-4.907 -14.156,-4.03 -19.619,1.949 z"
                 inkscape:connector-curvature="0"
                 style="fill:#ffffff" />
            </g>
          </g>
        </g>
        <g
           id="g7535"
           transform="matrix(2.0312817,0,0,2.0312817,396.85036,67.821463)">
          <circle
             id="circle7537"
             r="28.836"
             cy="28.500999"
             cx="37.785"
             sodipodi:cx="37.785"
             sodipodi:cy="28.500999"
             sodipodi:rx="28.836"
             sodipodi:ry="28.836"
             style="fill:#ffffff"
             d="M 66.621,28.500999 C 66.621,44.426683 53.710683,57.337 37.785,57.337 21.859317,57.337 8.9489994,44.426683 8.9489994,28.500999 c 0,-15.925683 12.9103176,-28.83599999 28.8360006,-28.83599999 15.925683,0 28.836,12.91031699 28.836,28.83599999 z" />
          <path
             id="path7539"
             d="m 37.441,-3.5 c 8.951,0 16.572,3.125 22.857,9.372 3.008,3.009 5.295,6.448 6.857,10.314 1.561,3.867 2.344,7.971 2.344,12.314 0,4.381 -0.773,8.486 -2.314,12.313 -1.543,3.828 -3.82,7.21 -6.828,10.143 -3.123,3.085 -6.666,5.448 -10.629,7.086 -3.961,1.638 -8.057,2.457 -12.285,2.457 -4.228,0 -8.276,-0.808 -12.143,-2.429 C 21.434,56.452 17.967,54.109 14.9,51.043 11.833,47.977 9.5,44.519 7.9,40.671 6.3,36.823 5.5,32.767 5.5,28.5 5.5,24.271 6.309,20.205 7.928,16.3 9.547,12.395 11.9,8.9 14.985,5.814 21.08,-0.394 28.565,-3.5 37.441,-3.5 z m 0.116,5.772 c -7.314,0 -13.467,2.553 -18.458,7.657 -2.515,2.553 -4.448,5.419 -5.8,8.6 -1.354,3.181 -2.029,6.505 -2.029,9.972 0,3.429 0.675,6.734 2.029,9.913 1.353,3.183 3.285,6.021 5.8,8.516 2.514,2.496 5.351,4.399 8.515,5.715 3.161,1.314 6.476,1.971 9.943,1.971 3.428,0 6.75,-0.665 9.973,-1.999 3.219,-1.335 6.121,-3.257 8.713,-5.771 4.99,-4.876 7.484,-10.99 7.484,-18.344 0,-3.543 -0.648,-6.895 -1.943,-10.057 C 60.491,15.283 58.604,12.465 56.13,9.987 50.984,4.844 44.795,2.272 37.557,2.272 z m -0.401,20.915 -4.287,2.229 c -0.458,-0.951 -1.019,-1.619 -1.685,-2 -0.667,-0.38 -1.286,-0.571 -1.858,-0.571 -2.856,0 -4.286,1.885 -4.286,5.657 0,1.714 0.362,3.084 1.085,4.113 0.724,1.029 1.791,1.544 3.201,1.544 1.867,0 3.181,-0.915 3.944,-2.743 l 3.942,2 c -0.838,1.563 -2,2.791 -3.486,3.686 -1.484,0.896 -3.123,1.343 -4.914,1.343 -2.857,0 -5.163,-0.875 -6.915,-2.629 -1.752,-1.752 -2.628,-4.19 -2.628,-7.313 0,-3.048 0.886,-5.466 2.657,-7.257 1.771,-1.79 4.009,-2.686 6.715,-2.686 3.963,-0.002 6.8,1.541 8.515,4.627 z m 18.457,0 -4.229,2.229 c -0.457,-0.951 -1.02,-1.619 -1.686,-2 -0.668,-0.38 -1.307,-0.571 -1.914,-0.571 -2.857,0 -4.287,1.885 -4.287,5.657 0,1.714 0.363,3.084 1.086,4.113 0.723,1.029 1.789,1.544 3.201,1.544 1.865,0 3.18,-0.915 3.941,-2.743 l 4,2 c -0.875,1.563 -2.057,2.791 -3.541,3.686 -1.486,0.896 -3.105,1.343 -4.857,1.343 -2.896,0 -5.209,-0.875 -6.941,-2.629 -1.736,-1.752 -2.602,-4.19 -2.602,-7.313 0,-3.048 0.885,-5.466 2.658,-7.257 1.77,-1.79 4.008,-2.686 6.713,-2.686 3.962,-0.002 6.783,1.541 8.458,4.627 z"
             inkscape:connector-curvature="0" />
        </g>
        <g
           id="g7447"
           transform="matrix(0.66326531,0,0,0.66326531,72.250257,276.27597)">
          <circle
             id="circle7431"
             r="98"
             cy="98"
             cx="98"
             sodipodi:cx="98"
             sodipodi:cy="98"
             sodipodi:rx="98"
             sodipodi:ry="98"
             style="fill:#000000"
             d="m 196,98 c 0,54.12391 -43.87609,98 -98,98 C 43.876095,196 0,152.12391 0,98 0,43.876095 43.876095,0 98,0 c 54.12391,0 98,43.876095 98,98 z" />
          <circle
             id="circle7433"
             r="78"
             cy="98"
             cx="98"
             sodipodi:cx="98"
             sodipodi:cy="98"
             sodipodi:rx="78"
             sodipodi:ry="78"
             style="fill:#ffffff"
             d="m 176,98 c 0,43.07821 -34.92179,78 -78,78 -43.07821,0 -78,-34.92179 -78,-78 0,-43.07821 34.92179,-78 78,-78 43.07821,0 78,34.92179 78,78 z" />
          <circle
             id="circle7435"
             r="55"
             cy="98"
             cx="98"
             sodipodi:cx="98"
             sodipodi:cy="98"
             sodipodi:rx="55"
             sodipodi:ry="55"
             style="fill:#000000"
             d="m 153,98 c 0,30.37566 -24.62434,55 -55,55 -30.375661,0 -55,-24.62434 -55,-55 0,-30.375661 24.624339,-55 55,-55 30.37566,0 55,24.624339 55,55 z" />
          <circle
             id="circle7437"
             r="30"
             cy="98"
             cx="98"
             sodipodi:cx="98"
             sodipodi:cy="98"
             sodipodi:rx="30"
             sodipodi:ry="30"
             style="fill:#ffffff"
             d="m 128,98 c 0,16.56854 -13.43146,30 -30,30 -16.568542,0 -30,-13.43146 -30,-30 0,-16.568542 13.431458,-30 30,-30 16.56854,0 30,13.431458 30,30 z" />
          <rect
             id="rect7439"
             height="25"
             width="45"
             y="85"
             x="115"
             style="fill:#ffffff" />
        </g>
        <g
           id="g7693"
           transform="translate(-159,209)">
          <g
             transform="matrix(0.13265306,0,0,0.13265306,584.17537,255.3253)"
             id="g7328">
            <circle
               d="M 930,490 C 930,733.00529 733.00529,930 490,930 246.99471,930 50,733.00529 50,490 50,246.99471 246.99471,50 490,50 733.00529,50 930,246.99471 930,490 z"
               style="fill:none;stroke:#000000;stroke-width:100"
               sodipodi:ry="440"
               sodipodi:rx="440"
               sodipodi:cy="490"
               sodipodi:cx="490"
               cx="490"
               cy="490"
               r="440"
               id="circle7318" />
            <path
               inkscape:connector-curvature="0"
               d="m 486,215 c -130,0 -239,91 -267,213 l 131,0 c 24,-52 76,-88 136,-88 83,0 150,67 150,150 0,83 -67,150 -150,150 -60,0 -112,-36 -136,-87 l -131,0 C 247,674 356,765 486,765 638,765 761,642 761,490 761,338 638,215 486,215 z"
               id="path7320" />
          </g>
          <path
             inkscape:connector-curvature="0"
             id="path7691"
             d="m 640.89272,371.19089 c -19.81384,-3.34207 -35.94728,-17.82424 -41.34224,-37.11083 -1.77437,-6.34324 -2.28012,-15.30541 -1.23147,-21.82215 3.19234,-19.83856 17.44144,-35.84577 36.93813,-41.49569 13.51319,-3.91597 29.1685,-1.71806 40.96189,5.75079 21.07782,13.34876 29.67711,38.46997 21.18461,61.88681 -2.36482,6.52065 -6.03804,12.25942 -11.34281,17.72117 -8.10057,8.34028 -18.16344,13.48303 -29.80207,15.2307 -3.35187,0.50332 -11.96295,0.41321 -15.36604,-0.1608 z m 17.02881,-15.46109 c 12.83873,-3.37253 22.59709,-13.17396 26.24487,-26.36069 0.62716,-2.26718 0.75456,-3.73168 0.77429,-8.90086 0.0259,-6.80221 -0.43725,-9.35528 -2.67076,-14.72042 -2.33865,-5.61769 -7.9439,-12.38037 -13.03875,-15.73114 -10.63706,-6.99575 -23.45847,-8.20209 -35.08027,-3.30063 -7.36102,3.10448 -14.35617,9.72033 -18.11759,17.13518 -0.92825,1.82985 -3.01713,7.5948 -3.01713,8.32676 0,0.0872 3.95486,0.15852 8.78858,0.15852 l 8.78858,0 1.25596,-2.0348 c 5.47497,-8.87015 16.57816,-12.1232 25.68601,-7.52557 2.55358,1.28904 6.10628,4.51244 7.68159,6.96959 3.46749,5.40854 4.00099,12.7384 1.35943,18.67746 -1.97573,4.44209 -6.32466,8.529 -10.95697,10.29683 -2.97465,1.13522 -8.01114,1.52273 -11.1012,0.85414 -4.90647,-1.06161 -10.63011,-5.2294 -12.76459,-9.29481 l -0.88173,-1.67938 -8.92783,0 c -4.91031,0 -8.92783,0.0592 -8.92783,0.13165 0,0.0724 0.39646,1.34616 0.88102,2.83058 4.15654,12.73322 15.00306,22.33161 28.00368,24.78126 4.23185,0.79739 11.74444,0.50962 16.02064,-0.61367 z"
             style="fill:#ffffff;fill-opacity:1;stroke:#ffffff;stroke-opacity:1" />
        </g>
      </g>
    </g>
  </g>
  <g
     inkscape:label="Layer 1"
     inkscape:groupmode="layer"
     id="layer1"
     transform="translate(8.9839586,880.5408)">
    <text
       xml:space="preserve"
       style="font-size:185.30014038px;font-style:normal;font-variant:normal;font-weight:normal;font-stretch:normal;line-height:125%;letter-spacing:0px;word-spacing:0px;opacity:0.85;fill:#ffffff;fill-opacity:1;stroke:none;font-family:Sans;-inkscape-font-specification:Helvetica"
       x="61.79808"
       y="-669.42053"
       id="text4372"
       sodipodi:linespacing="125%"><tspan
         sodipodi:role="line"
         id="tspan4374"
         x="61.79808"
         y="-669.42053"
         style="font-style:italic;font-variant:normal;font-weight:normal;font-stretch:normal;fill:#ffffff;fill-opacity:1;stroke:none;font-family:Baskerville;-inkscape-font-specification:Baskerville Italic">Licentia</tspan></text>
    <g
       id="layer1-3"
       transform="matrix(0.62986201,0,0,0.62986201,824.6157,-843.83913)"
       style="opacity:0.85;fill:#ffffff;fill-opacity:1;stroke:none">
      <g
         id="g2378"
         transform="matrix(0.82621863,0,0,-0.82621863,-880.57991,847.88795)"
         style="fill:#ffffff;fill-opacity:1;stroke:none">
        <g
           id="g2380"
           clip-path="url(#clipPath2382)"
           style="fill:#ffffff;fill-opacity:1;stroke:none">
          <g
             id="g2386"
             style="fill:#ffffff;fill-opacity:1;stroke:none">
            <g
               id="g2388"
               style="fill:#ffffff;fill-opacity:1;stroke:none">
              <path
                 style="fill:#ffffff;fill-opacity:1;stroke:none"
                 id="path2396"
                 d="m 167.674,685.688 c -4.781,-4.088 -9.703,-8.604 -14.203,-13.878 l 0,0 c -2.631,-3.073 10,-1.8 15.764,1.673 l 0,0 c 5.814,3.502 11.798,8.189 17.171,13.641 l 0,0 c 1.688,1.713 -0.283,2.431 -3.535,2.431 l 0,0 c -4.845,0 -12.535,-1.594 -15.197,-3.867 M 139.371,657.586 C 115.868,633.93 92.207,607.537 85.535,586.993 l 0,0 c -3.687,-11.358 -0.284,-21.562 13.829,-21.562 l 0,0 c 11.586,0 24.419,5.74 35.318,12.556 l 0,0 c -2.68,-3.656 -5.13,-6.977 -7.095,-9.651 l 0,0 c -3.076,-4.167 12.519,-2.644 15.808,1.554 l 0,0 c 12.335,15.777 41.969,35.189 50.221,35.189 l 0,0 c 7.508,0 -18.357,-19.383 -18.117,-31.248 l 0,0 c 0.3,-15.583 36.394,-6.039 48.642,9.999 l 0,0 c 1.92,2.5 0.422,9.389 -1.307,7.713 l 0,0 c -5.603,-5.474 -17.872,-14.635 -28.595,-14.635 l 0,0 c -7.932,0 7.867,14.21 15.69,25.666 l 0,0 c 7.468,10.944 1.361,14.221 -4.806,14.221 l 0,0 c -15.269,0 -30.182,-10.717 -40.293,-18.254 l 0,0 c 3.054,4.089 7.809,9.332 12.881,16.026 l 0,0 c 2.81,3.717 -14.025,2.384 -18.333,-3.288 l 0,0 c -1.373,-1.795 -2.887,-3.809 -4.502,-5.961 l 0,0 c -14.61,-17.563 -36.681,-29.412 -47.511,-29.412 l 0,0 c -6.037,0 -8.234,4.157 -4.476,12.016 l 0,0 c 9.057,18.948 40.266,54.953 57.228,70.718 l 0,0 c 3.265,3.06 0.985,4.294 -3.129,4.294 l 0,0 c -5.588,0 -14.56,-2.277 -17.617,-5.348 m 199.818,-15.21 c -4.789,-4.094 -12.747,-11.426 -17.25,-16.703 l 0,0 c -2.624,-3.078 8.1,-2.769 13.864,0.701 l 0,0 c 5.81,3.501 16.74,11.986 22.119,17.436 l 0,0 c 1.688,1.713 -0.286,2.431 -3.539,2.431 l 0,0 c -4.847,0 -12.534,-1.593 -15.194,-3.865 M 229.936,599.812 c -2.419,-2.841 -1.167,-9.955 1.332,-7.486 l 0,0 c 15.649,15.481 15.293,14.22 36.009,14.22 l 0,0 c -3.331,-3.538 -9.267,-7.068 -19.337,-19.847 l 0,0 c -8.972,-11.401 -3.102,-20.615 9.64,-20.615 l 0,0 c 7.046,0 17.563,3.305 27.183,10.084 l 0,0 c -1.152,-5.94 1.233,-10.192 10.306,-10.192 l 0,0 c 10.511,0 22.513,6.253 32.458,13.207 l 0,0 c -1.246,-7.544 2.637,-13.207 13.764,-13.207 l 0,0 c 8.561,0 18.529,3.362 28.82,12.284 l 0,0 c -0.054,-6.818 4.754,-12.233 13.717,-12.233 l 0,0 c 21.824,0 97.199,27.374 123.424,11.565 l 0,0 c 3.283,-1.972 3.137,8.303 -3.479,12.417 l 0,0 C 480.09,604.764 415.322,579.051 390.756,576.121 l 0,0 c -4.604,-0.55 -6.28,0.612 -5.193,3.736 l 0,0 c 2.083,6.023 10.295,17.1 11.947,20.915 l 0,0 c 1.558,3.643 1.346,16.165 -17.176,16.165 l 0,0 c -15.135,0 -29.02,-7.028 -38.779,-15.875 l 0,0 c -9.299,-7.93 -27.315,-23.62 -38.406,-23.62 l 0,0 c -11.48,0 22.144,34.687 24.001,36.437 l 0,0 c 4.999,4.689 -10.759,3.532 -17.381,-1.512 l 0,0 c -2.644,-2.013 -13.214,-13.317 -19.825,-24.265 l 0,0 c -19.121,-13.217 -38.156,-16.285 -29.098,-5.298 l 0,0 c 4.814,5.856 12.962,13.699 18.566,19.912 l 0,0 c 7.822,8.676 6.41,14.384 -10.863,14.384 l 0,0 c -23.122,0 -25.568,-2.012 -38.613,-17.288 m 150.232,8.687 c 11.175,0 -19.211,-32.702 -33.012,-32.702 l 0,0 c -14.31,0 14.346,32.702 33.012,32.702"
                 inkscape:connector-curvature="0" />
            </g>
          </g>
        </g>
      </g>
    </g>
    <text
       xml:space="preserve"
       style="font-size:55.44919586px;font-style:normal;font-weight:normal;line-height:125%;letter-spacing:0px;word-spacing:0px;opacity:0.85;fill:#ffffff;fill-opacity:1;stroke:none;font-family:Sans"
       x="290.53461"
       y="-634.71997"
       id="text5148"
       sodipodi:linespacing="125%"><tspan
         sodipodi:role="line"
         id="tspan5150"
         x="290.53461"
         y="-634.71997"
         style="font-size:31.17096519px;font-style:italic;font-variant:normal;font-weight:normal;font-stretch:normal;fill:#ffffff;stroke:none;font-family:Apple Chancery;-inkscape-font-specification:Apple Chancery Italic">by</tspan></text>
  </g>
</svg>
